HIERARCHY
ROOT Hips
{
    OFFSET   0.000000   0.000000   0.000000
    CHANNELS 6 Xposition Yposition Zposition Zrotation Xrotation Yrotation
    JOINT Chest
    {
        OFFSET   0.000000   8.007230   0.000000
        CHANNELS 3 Zrotation Xrotation Yrotation
        JOINT Chest2
        {
            OFFSET   0.000000  22.077100   0.000000
            CHANNELS 3 Zrotation Xrotation Yrotation
            JOINT Neck
            {
                OFFSET   0.000000  23.254700   0.000000
                CHANNELS 3 Zrotation Xrotation Yrotation
                JOINT Head
                {
                    OFFSET   0.000010  14.370000   1.956610
                    CHANNELS 3 Zrotation Xrotation Yrotation
                    End Site
                    {
                        OFFSET   0.000000  19.566000   0.000000
                    }
                }
            }
            JOINT LeftCollar
            {
                OFFSET   3.911900  19.017000  -0.467063
                CHANNELS 3 Zrotation Xrotation Yrotation
                JOINT LeftShoulder
                {
                    OFFSET  10.383700   0.000000   0.000000
                    CHANNELS 3 Zrotation Xrotation Yrotation
                    JOINT LeftElbow
                    {
                        OFFSET  26.662100   0.001671   0.000522
                        CHANNELS 3 Zrotation Xrotation Yrotation
                        JOINT LeftWrist
                        {
                            OFFSET  28.869000   0.000037  -0.000114
                            CHANNELS 3 Zrotation Xrotation Yrotation
                            JOINT LeftFinger0
                            {
                                OFFSET   2.044650  -2.323450   3.252850
                                CHANNELS 3 Zrotation Xrotation Yrotation
                                JOINT LeftFinger01
                                {
                                    OFFSET   3.088140   0.000000   0.000000
                                    CHANNELS 3 Zrotation Xrotation Yrotation
                                    JOINT LeftFinger02
                                    {
                                        OFFSET   2.639460   0.000000   0.000000
                                        CHANNELS 3 Zrotation Xrotation Yrotation
                                        End Site
                                        {
                                            OFFSET   2.582190   0.000000   0.000000
                                        }
                                    }
                                }
                            }
                            JOINT LeftFinger1
                            {
                                OFFSET   8.364480   0.000000   3.252850
                                CHANNELS 3 Zrotation Xrotation Yrotation
                                JOINT LeftFinger11
                                {
                                    OFFSET   4.646930   0.000000   0.000000
                                    CHANNELS 3 Zrotation Xrotation Yrotation
                                    JOINT LeftFinger12
                                    {
                                        OFFSET   2.323470   0.000000   0.000000
                                        CHANNELS 3 Zrotation Xrotation Yrotation
                                        End Site
                                        {
                                            OFFSET   2.273050   0.000000   0.000000
                                        }
                                    }
                                }
                            }
                            JOINT LeftFinger2
                            {
                                OFFSET   8.364490   0.000016   1.078090
                                CHANNELS 3 Zrotation Xrotation Yrotation
                                JOINT LeftFinger21
                                {
                                    OFFSET   5.111620   0.000000   0.000000
                                    CHANNELS 3 Zrotation Xrotation Yrotation
                                    JOINT LeftFinger22
                                    {
                                        OFFSET   2.788150   0.000013   0.000000
                                        CHANNELS 3 Zrotation Xrotation Yrotation
                                        End Site
                                        {
                                            OFFSET   2.727660   0.000000   0.000000
                                        }
                                    }
                                }
                            }
                            JOINT LeftFinger3
                            {
                                OFFSET   7.899780   0.000016  -1.078090
                                CHANNELS 3 Zrotation Xrotation Yrotation
                                JOINT LeftFinger31
                                {
                                    OFFSET   4.646930   0.000000   0.000000
                                    CHANNELS 3 Zrotation Xrotation Yrotation
                                    JOINT LeftFinger32
                                    {
                                        OFFSET   2.323470   0.000000   0.000000
                                        CHANNELS 3 Zrotation Xrotation Yrotation
                                        End Site
                                        {
                                            OFFSET   2.273050   0.000000   0.000000
                                        }
                                    }
                                }
                            }
                            JOINT LeftFinger4
                            {
                                OFFSET   7.435080   0.000000  -3.252850
                                CHANNELS 3 Zrotation Xrotation Yrotation
                                JOINT LeftFinger41
                                {
                                    OFFSET   3.717550   0.000000   0.000000
                                    CHANNELS 3 Zrotation Xrotation Yrotation
                                    JOINT LeftFinger42
                                    {
                                        OFFSET   1.858760   0.000000   0.000000
                                        CHANNELS 3 Zrotation Xrotation Yrotation
                                        End Site
                                        {
                                            OFFSET   1.818440   0.000000   0.000000
                                        }
                                    }
                                }
                            }
                        }
                    }
                }
            }
            JOINT RightCollar
            {
                OFFSET  -3.911900  19.017000  -0.467064
                CHANNELS 3 Zrotation Xrotation Yrotation
                JOINT RightShoulder
                {
                    OFFSET -10.383700   0.000000   0.000000
                    CHANNELS 3 Zrotation Xrotation Yrotation
                    JOINT RightElbow
                    {
                        OFFSET -26.662100   0.001633   0.000260
                        CHANNELS 3 Zrotation Xrotation Yrotation
                        JOINT RightWrist
                        {
                            OFFSET -28.869000  -0.000045  -0.000080
                            CHANNELS 3 Zrotation Xrotation Yrotation
                            JOINT RightFinger0
                            {
                                OFFSET  -2.044660  -2.323490   3.252850
                                CHANNELS 3 Zrotation Xrotation Yrotation
                                JOINT RightFinger01
                                {
                                    OFFSET  -3.088140   0.000000   0.000000
                                    CHANNELS 3 Zrotation Xrotation Yrotation
                                    JOINT RightFinger02
                                    {
                                        OFFSET  -2.639450   0.000000   0.000000
                                        CHANNELS 3 Zrotation Xrotation Yrotation
                                        End Site
                                        {
                                            OFFSET  -2.582190   0.000000   0.000000
                                        }
                                    }
                                }
                            }
                            JOINT RightFinger1
                            {
                                OFFSET  -8.364480   0.000000   3.252850
                                CHANNELS 3 Zrotation Xrotation Yrotation
                                JOINT RightFinger11
                                {
                                    OFFSET  -4.646920   0.000000   0.000000
                                    CHANNELS 3 Zrotation Xrotation Yrotation
                                    JOINT RightFinger12
                                    {
                                        OFFSET  -2.323470   0.000000   0.000000
                                        CHANNELS 3 Zrotation Xrotation Yrotation
                                        End Site
                                        {
                                            OFFSET  -2.273050   0.000000   0.000000
                                        }
                                    }
                                }
                            }
                            JOINT RightFinger2
                            {
                                OFFSET  -8.364480   0.000000   1.078090
                                CHANNELS 3 Zrotation Xrotation Yrotation
                                JOINT RightFinger21
                                {
                                    OFFSET  -5.111610   0.000000   0.000000
                                    CHANNELS 3 Zrotation Xrotation Yrotation
                                    JOINT RightFinger22
                                    {
                                        OFFSET  -2.788160   0.000000   0.000000
                                        CHANNELS 3 Zrotation Xrotation Yrotation
                                        End Site
                                        {
                                            OFFSET  -2.727660   0.000000   0.000000
                                        }
                                    }
                                }
                            }
                            JOINT RightFinger3
                            {
                                OFFSET  -7.899780   0.000000  -1.078090
                                CHANNELS 3 Zrotation Xrotation Yrotation
                                JOINT RightFinger31
                                {
                                    OFFSET  -4.646930   0.000000   0.000000
                                    CHANNELS 3 Zrotation Xrotation Yrotation
                                    JOINT RightFinger32
                                    {
                                        OFFSET  -2.323470   0.000000   0.000000
                                        CHANNELS 3 Zrotation Xrotation Yrotation
                                        End Site
                                        {
                                            OFFSET  -2.273050   0.000000   0.000000
                                        }
                                    }
                                }
                            }
                            JOINT RightFinger4
                            {
                                OFFSET  -7.435090   0.000000  -3.252850
                                CHANNELS 3 Zrotation Xrotation Yrotation
                                JOINT RightFinger41
                                {
                                    OFFSET  -3.717550   0.000000   0.000000
                                    CHANNELS 3 Zrotation Xrotation Yrotation
                                    JOINT RightFinger42
                                    {
                                        OFFSET  -1.858760   0.000000   0.000000
                                        CHANNELS 3 Zrotation Xrotation Yrotation
                                        End Site
                                        {
                                            OFFSET  -1.818440   0.000000   0.000000
                                        }
                                    }
                                }
                            }
                        }
                    }
                }
            }
        }
    }
    JOINT LeftHip
    {
        OFFSET   9.782990   0.000000   0.000000
        CHANNELS 3 Zrotation Xrotation Yrotation
        JOINT LeftKnee
        {
            OFFSET  -0.000063 -41.789100   0.001657
            CHANNELS 3 Zrotation Xrotation Yrotation
            JOINT LeftAnkle
            {
                OFFSET   0.000078 -41.133200  -0.000113
                CHANNELS 3 Zrotation Xrotation Yrotation
                JOINT LeftToe
                {
                    OFFSET   0.000000  -6.358970  14.674500
                    CHANNELS 3 Zrotation Xrotation Yrotation
                    End Site
                    {
                        OFFSET   0.000000   0.000000   3.913200
                    }
                }
            }
        }
    }
    JOINT RightHip
    {
        OFFSET  -9.782990   0.000000   0.000000
        CHANNELS 3 Zrotation Xrotation Yrotation
        JOINT RightKnee
        {
            OFFSET   0.000053 -41.789200   0.000277
            CHANNELS 3 Zrotation Xrotation Yrotation
            JOINT RightAnkle
            {
                OFFSET   0.000030 -41.133200  -0.000150
                CHANNELS 3 Zrotation Xrotation Yrotation
                JOINT RightToe
                {
                    OFFSET   0.000000  -6.358960  14.674500
                    CHANNELS 3 Zrotation Xrotation Yrotation
                    End Site
                    {
                        OFFSET   0.000000   0.000000   3.913200
                    }
                }
            }
        }
    }
}
MOTION
Frames: 6
Frame Time:   0.016667
  7.216030  89.053800  -5.200080   4.165190 -29.252100   6.433710  -3.170880  17.953900   9.046010 -10.219100  35.065900  20.775700   3.154030  -3.339640   0.183686   5.230590  -6.709570 -20.346500  -8.085970 -13.240800  -3.937220 -61.900200  32.159600 -13.985400  -0.226226  -7.151950 -18.427300  11.637900  -7.664200   6.230760  38.004700  31.825100 -52.222400 -34.486400   0.000466   0.000357 -12.243200   0.000107   0.000000 -35.910800   7.939960 -10.801700 -29.996700  -0.001617  -0.011603 -20.997700   0.000571  -0.007613 -30.532300  -1.028100   1.740690 -45.822100   0.003658  -0.010529 -30.517500   0.003560  -0.003919 -28.777200  -0.973568   1.772100 -42.917000   0.000605  -0.012727 -28.582700   0.001271  -0.006621 -35.148000  -1.165120   1.651990 -52.747300   0.003009  -0.010373 -35.129700   0.003136  -0.004195  10.324500 -11.064900  14.266300  40.129000 -20.085600  57.626600 -25.805700 -14.748800  14.172000   6.632720 -68.576400  23.031700 -59.636500  37.120900  64.406700 -15.674600  -0.001260  -0.000274 -12.837300  -0.001238   0.001930  22.483400  -3.653930  -8.754410  18.624600   0.006355   0.004490  13.037200   0.003284   0.003301  16.098000  -2.651150  -9.106430  16.309400  -0.000987   0.003750  10.862000   0.000867   0.002008   9.303850  -1.546420  -9.355700   9.430460   0.001008   0.004878   6.280670   0.002303   0.001238  17.647900  -2.898260  -9.031140  26.815500  -0.002496   0.003942  17.859200  -0.000474   0.005891  -7.246920  26.983900   9.347820   2.377260   5.765630   0.136868   0.357096  -4.737280   2.201900  -0.000000   0.000000   0.000000  -4.152250  23.618600  -1.214710  -2.367360  15.557200 -14.387000   3.881260  -7.196550  -0.272036  -0.000000   0.000000   0.000000
  7.310190  89.055800  -5.232170   4.228050 -29.120600   6.608190  -3.218200  17.935000   9.085900 -10.328000  35.014600  20.872300   3.188600  -3.357440   0.186787   5.288660  -6.743190 -20.339700  -8.097130 -13.266700  -3.985470 -61.912400  31.785400 -13.714900  -0.307042  -7.103900 -18.196500  11.631800  -7.407580   6.257980  37.990400  31.832200 -52.117900 -34.530700   0.000427   0.000336 -12.265300   0.000083  -0.000099 -35.691300   7.900260 -10.799500 -29.805600  -0.001715  -0.013393 -20.863900   0.000512  -0.008838 -30.369000  -1.026450   1.742690 -45.577800   0.003839  -0.011680 -30.354800   0.003745  -0.004919 -28.779600  -0.974342   1.773460 -42.701700   0.000660  -0.012924 -28.439300   0.001191  -0.007187 -34.928200  -1.162080   1.654280 -52.418300   0.003125  -0.011614 -34.910600   0.003279  -0.005221  10.241800 -11.058000  14.181800  40.391700 -20.127000  57.820200 -25.683900 -14.712200  13.991200   6.100970 -68.557600  22.602300 -59.631900  37.090800  64.276500 -16.199000  -0.001233  -0.000295 -13.099500  -0.001194   0.001978  22.043600  -3.627030  -8.880880  18.266300   0.006312   0.004440  12.786400   0.003318   0.003198  15.937700  -2.651680  -9.215810  16.151800  -0.000536   0.003856  10.757100   0.000807   0.002026   9.241500  -1.551680  -9.461700   9.370110   0.001002   0.005101   6.240490   0.002261   0.001475  17.361400  -2.885660  -9.148710  26.388500  -0.002322   0.003992  17.574800  -0.000364   0.006046  -7.297020  26.862900   9.242810   2.367310   5.726630   0.021156   0.318940  -4.678970   2.246230  -0.000000   0.000000   0.000000  -4.204360  23.617900  -1.266070  -2.363850  15.326300 -14.528600   3.890310  -7.090600  -0.256653  -0.000000   0.000000   0.000000
  7.395620  89.056500  -5.263700   4.262340 -28.990900   6.736020  -3.257320  17.914700   9.119730 -10.416700  34.963100  20.952600   3.212060  -3.384350   0.189744   5.328020  -6.796980 -20.318900  -8.108730 -13.293400  -4.030140 -61.948200  31.370800 -13.446100  -0.375914  -7.019440 -17.983100  11.644900  -7.169060   6.283280  37.884200  31.680500 -51.841100 -34.574400   0.000296   0.000271 -12.287200   0.000000  -0.000388 -35.546600   7.825960 -10.789200 -29.689300  -0.001770  -0.017958 -20.782500   0.000480  -0.012861 -30.289900  -1.026210   1.756680 -45.458800   0.004427  -0.013748 -30.275500   0.004333  -0.008841 -28.782600  -0.979757   1.782990 -42.586900   0.000848  -0.013307 -28.362800   0.001153  -0.008976 -34.819300  -1.161630   1.670320 -52.254700   0.003512  -0.014195 -34.801600   0.003751  -0.009196  10.168300 -11.054100  14.109200  40.802100 -20.231600  58.088300 -25.625300 -14.622400  13.922900   5.683230 -68.512000  22.266500 -59.515600  37.005800  64.095200 -16.624000  -0.001222  -0.000308 -13.312000  -0.001153   0.002034  21.703500  -3.605920  -8.978570  17.989000   0.006234   0.004389  12.592300   0.003356   0.003097  15.778300  -2.652870  -9.302330  15.994200  -0.000063   0.003957  10.652100   0.000726   0.002046   9.179750  -1.557080  -9.544900   9.309760   0.000969   0.005325   6.200310   0.002210   0.001713  17.169200  -2.879680  -9.235180  26.102700  -0.002092   0.004041  17.384400  -0.000234   0.006195  -7.333560  26.747200   9.137820   2.353610   5.678570  -0.081801   0.295409  -4.622390   2.320520   0.000000   0.000000   0.000000  -4.241960  23.615500  -1.308880  -2.358620  15.106900 -14.656800   3.897210  -6.997010  -0.233639   0.000000   0.000000  -0.000000
  7.475940  89.057700  -5.290390   4.288460 -28.867400   6.832890  -3.295810  17.897000   9.148150 -10.502900  34.917300  21.021700   3.228390  -3.421710   0.192752   5.356270  -6.871390 -20.283800  -8.117790 -13.324100  -4.064060 -62.004500  30.942200 -13.177100  -0.438253  -6.942320 -17.798600  11.683000  -7.009720   6.312710  37.598900  31.142500 -51.349600 -34.628800  -0.009777  -0.006716 -12.314400  -0.004860  -0.011728 -35.521300   7.735350 -10.688600 -29.663200   0.003832  -0.044269 -20.764300   0.008634  -0.031491 -30.299400  -1.086900   1.865460 -45.475700   0.015836  -0.040594 -30.286800   0.016556  -0.025983 -28.780000  -1.039590   1.891660 -42.674100   0.006816  -0.041023 -28.420900   0.008595  -0.027280 -34.854800  -1.231180   1.774220 -52.310900   0.014646  -0.045021 -34.839100   0.016872  -0.027981  10.107800 -11.047800  14.058800  41.167200 -20.318500  58.363100 -25.641600 -14.488100  13.874000   5.221160 -68.465800  21.893200 -59.313300  36.898300  63.939700 -16.480200  -0.001214  -0.000251 -13.240100  -0.001117   0.002105  21.797000  -3.611810  -8.951770  18.065200   0.006130   0.004324  12.645600   0.003406   0.003009  15.917400  -2.670600  -9.274150  16.134200   0.000428   0.004040  10.745300   0.000638   0.002069   9.246740  -1.566580  -9.520890   9.376980   0.000899   0.005555   6.245070   0.002159   0.001947  17.291100  -2.892400  -9.207480  26.286000  -0.001808   0.004088  17.506500  -0.000088   0.006330  -7.373710  26.648700   9.042900   2.331030   5.609570  -0.174593   0.286094  -4.562990   2.402390   0.000000   0.000000   0.000000  -4.284700  23.605400  -1.330320  -2.352640  14.895200 -14.770300   3.907010  -6.913750  -0.219975  -0.000000   0.000000   0.000000
  7.551790  89.059200  -5.313230   4.295460 -28.749100   6.889630  -3.331000  17.879200   9.171880 -10.580400  34.872500  21.079500   3.240600  -3.465100   0.195856   5.377920  -6.958120 -20.237700  -8.125670 -13.355000  -4.092610 -62.054700  30.540100 -12.924200  -0.499204  -6.899420 -17.642100  11.708700  -6.898720   6.329180  37.294900  30.540200 -50.873600 -34.681400  -0.025022  -0.017312 -12.340700  -0.012043  -0.029314 -35.538300   7.667030 -10.579800 -29.658400   0.019116  -0.076189 -20.760900   0.025344  -0.048932 -30.318100  -1.169510   1.998900 -45.507500   0.045774  -0.083303 -30.308100   0.044559  -0.045798 -28.775400  -1.115350   2.029580 -42.821900   0.020480  -0.082911 -28.519400   0.023614  -0.051914 -34.916900  -1.326070   1.898760 -52.408000   0.038396  -0.089386 -34.903800   0.041632  -0.049951  10.059400 -11.042300  14.022400  41.500800 -20.389000  58.624200 -25.664200 -14.399700  13.829100   4.836230 -68.421000  21.578500 -59.181600  36.807900  63.873700 -16.240100  -0.001211  -0.000193 -13.120100  -0.001087   0.002180  21.949700  -3.621460  -8.907950  18.189700   0.006007   0.004257  12.732800   0.003457   0.002925  16.117000  -2.691120  -9.229380  16.334300   0.000939   0.004124  10.878600   0.000533   0.002092   9.332060  -1.572780  -9.482120   9.462480   0.000803   0.005789   6.302020   0.002106   0.002180  17.479800  -2.911470  -9.162750  26.569700  -0.001481   0.004133  17.695500   0.000073   0.006456  -7.410080  26.566600   8.959900   2.303240   5.519150  -0.257502   0.287671  -4.501040   2.493870   0.000000   0.000000   0.000000  -4.324810  23.589800  -1.338700  -2.345720  14.689200 -14.862900   3.913340  -6.836690  -0.210679  -0.000000   0.000000   0.000000
  7.625930  89.061500  -5.331230   4.279770 -28.634600   6.906110  -3.362510  17.859700   9.192230 -10.648100  34.825300  21.128200   3.252760  -3.511700   0.199231   5.399510  -7.051360 -20.183800  -8.133060 -13.383700  -4.118400 -62.069200  30.223800 -12.701500  -0.560188  -6.928500 -17.516100  11.702900  -6.839310   6.325120  37.065600  30.124200 -50.618600 -34.722600  -0.036212  -0.025057 -12.361300  -0.016831  -0.044269 -35.539400   7.652720 -10.560800 -29.657000   0.047728  -0.093762 -20.760000   0.047944  -0.052136 -30.345500  -1.196530   2.042760 -45.549900   0.109364  -0.130774 -30.336300   0.098065  -0.055959 -28.774200  -1.140210   2.074700 -42.954500   0.040890  -0.113835 -28.607700   0.042636  -0.066875 -34.987600  -1.357930   1.939290 -52.515500   0.077114  -0.125605 -34.975400   0.077137  -0.060784  10.025000 -11.038000  13.997300  41.595600 -20.412300  58.815900 -25.656700 -14.455000  13.722500   4.628860 -68.401700  21.401500 -59.289900  36.916300  64.230400 -16.028100  -0.001217  -0.000272 -13.014100  -0.001060   0.002249  22.052300  -3.628080  -8.878450  18.273300   0.005874   0.004196  12.791300   0.003496   0.002834  16.194800  -2.696420  -9.201890  16.411800   0.001477   0.004231  10.930200   0.000401   0.002113   9.344740  -1.570300  -9.457340   9.474670   0.000689   0.006025   6.310150   0.002049   0.002415  17.605700  -2.924100  -9.132760  26.758900  -0.001121   0.004175  17.821500   0.000245   0.006573  -7.440190  26.504600   8.895820   2.271900   5.399380  -0.333339   0.298162  -4.434550   2.591580  -0.000000   0.000000   0.000000  -4.358340  23.573600  -1.341490  -2.337970  14.482000 -14.925100   3.913320  -6.760230  -0.207832  -0.000000   0.000000   0.000000
